<svg xmlns="http://www.w3.org/2000/svg" viewBox="0 0 1600 1100" role="img" aria-label="Aged cream deckle paper with creases on black background">
  <defs>
    <filter id="paperNoise" x="-8%" y="-8%" width="116%" height="116%">
      <feTurbulence type="fractalNoise" baseFrequency="0.48" numOctaves="6" seed="44" result="noise"/>
      <feColorMatrix in="noise" type="matrix" values="0 0 0 0 0.86 0 0 0 0 0.79 0 0 0 0 0.63 0 0 0 .42 0" result="tone"/>
      <feComposite in="tone" in2="SourceGraphic" operator="in" result="texture"/>
      <feBlend in="SourceGraphic" in2="texture" mode="multiply"/>
    </filter>
    <filter id="shadow" x="-18%" y="-18%" width="136%" height="136%">
      <feDropShadow dx="0" dy="20" stdDeviation="22" flood-color="#000" flood-opacity="0.66"/>
      <feDropShadow dx="9" dy="4" stdDeviation="5" flood-color="#000" flood-opacity="0.24"/>
    </filter>
    <linearGradient id="aged" x1="0" x2="1" y1="0" y2="1">
      <stop offset="0" stop-color="#f3e8c9"/>
      <stop offset="0.47" stop-color="#ead9b8"/>
      <stop offset="1" stop-color="#c9ad7c"/>
    </linearGradient>
    <radialGradient id="centerLift" cx="45%" cy="38%" r="66%">
      <stop offset="0" stop-color="#fff4d4" stop-opacity="0.52"/>
      <stop offset="0.62" stop-color="#fff4d4" stop-opacity="0.12"/>
      <stop offset="1" stop-color="#6b4d2f" stop-opacity="0.14"/>
    </radialGradient>
  </defs>
  <rect width="1600" height="1100" fill="#000"/>
  <g filter="url(#shadow)">
    <path d="M165 136 C298 126 409 142 548 132 C690 122 808 144 950 132 C1082 121 1227 140 1432 131 C1452 238 1437 333 1448 448 C1458 553 1434 648 1448 764 C1461 874 1436 944 1428 980 C1298 972 1183 990 1050 980 C914 970 795 990 657 978 C526 967 401 990 270 978 C204 972 167 972 150 963 C159 826 138 703 153 572 C166 448 146 342 156 248 C161 194 157 158 165 136 Z" fill="url(#aged)" filter="url(#paperNoise)"/>
    <path d="M165 136 C390 163 604 132 831 151 C1015 166 1226 132 1432 131" fill="none" stroke="#fff5dd" stroke-opacity="0.42" stroke-width="5"/>
    <path d="M154 248 C245 236 323 260 410 245 C505 230 602 257 705 239 C794 224 910 257 1009 241 C1115 225 1230 254 1445 236" fill="none" stroke="#7b654c" stroke-opacity="0.08" stroke-width="4"/>
    <path d="M290 186 C386 268 436 370 468 500 C510 665 637 748 728 963" fill="none" stroke="#6e5640" stroke-opacity="0.10" stroke-width="6"/>
    <path d="M1280 178 C1210 308 1158 411 1186 568 C1212 715 1332 792 1410 930" fill="none" stroke="#fff8e8" stroke-opacity="0.24" stroke-width="5"/>
    <path d="M318 915 C470 874 602 951 742 905 C904 853 1020 949 1186 902 C1280 875 1357 923 1428 980" fill="none" stroke="#6b4d2f" stroke-opacity="0.08" stroke-width="7"/>
    <path d="M165 136 C298 126 409 142 548 132 C690 122 808 144 950 132 C1082 121 1227 140 1432 131 C1452 238 1437 333 1448 448 C1458 553 1434 648 1448 764 C1461 874 1436 944 1428 980 C1298 972 1183 990 1050 980 C914 970 795 990 657 978 C526 967 401 990 270 978 C204 972 167 972 150 963 C159 826 138 703 153 572 C166 448 146 342 156 248 C161 194 157 158 165 136 Z" fill="url(#centerLift)"/>
  </g>
</svg>
