<svg xmlns="http://www.w3.org/2000/svg" viewBox="0 0 1024 1024" width="1024" height="1024" fill="none">
<g opacity="0.55">
<ellipse cx="52" cy="117" rx="1.4" ry="0.8" fill="#8f8278" opacity="0.22"/>
<ellipse cx="114" cy="468" rx="2.1" ry="1.2" fill="#d1bfae" opacity="0.24"/>
<ellipse cx="173" cy="298" rx="1.8" ry="1" fill="#b7aa9f" opacity="0.2"/>
<ellipse cx="216" cy="842" rx="2.7" ry="1.5" fill="#8f8278" opacity="0.18"/>
<ellipse cx="244" cy="62" rx="1.2" ry="0.9" fill="#f0e3d2" opacity="0.28"/>
<ellipse cx="302" cy="571" rx="2.2" ry="1.4" fill="#b7aa9f" opacity="0.22"/>
<ellipse cx="335" cy="210" rx="1" ry="0.7" fill="#8f8278" opacity="0.22"/>
<ellipse cx="386" cy="930" rx="2.4" ry="1.3" fill="#d1bfae" opacity="0.2"/>
<ellipse cx="422" cy="386" rx="1.7" ry="0.9" fill="#b7aa9f" opacity="0.18"/>
<ellipse cx="471" cy="714" rx="1.3" ry="1" fill="#8f8278" opacity="0.17"/>
<ellipse cx="512" cy="104" rx="2.2" ry="1.1" fill="#d1bfae" opacity="0.2"/>
<ellipse cx="544" cy="502" rx="1.2" ry="0.8" fill="#8f8278" opacity="0.22"/>
<ellipse cx="596" cy="814" rx="2.8" ry="1.4" fill="#b7aa9f" opacity="0.18"/>
<ellipse cx="644" cy="332" rx="1.1" ry="0.8" fill="#f0e3d2" opacity="0.3"/>
<ellipse cx="681" cy="692" rx="2.5" ry="1.5" fill="#8f8278" opacity="0.16"/>
<ellipse cx="732" cy="148" rx="1.6" ry="0.9" fill="#d1bfae" opacity="0.22"/>
<ellipse cx="775" cy="535" rx="2.4" ry="1.2" fill="#b7aa9f" opacity="0.22"/>
<ellipse cx="812" cy="942" rx="1.3" ry="0.9" fill="#8f8278" opacity="0.2"/>
<ellipse cx="865" cy="256" rx="2.1" ry="1.2" fill="#d1bfae" opacity="0.19"/>
<ellipse cx="924" cy="627" rx="2.7" ry="1.6" fill="#b7aa9f" opacity="0.17"/>
<ellipse cx="980" cy="91" rx="1.4" ry="0.9" fill="#8f8278" opacity="0.2"/>
<ellipse cx="963" cy="874" rx="1.9" ry="1.2" fill="#d1bfae" opacity="0.2"/>
<circle cx="74" cy="934" r="0.8" fill="#8f8278" opacity="0.2"/>
<circle cx="129" cy="719" r="0.6" fill="#d1bfae" opacity="0.25"/>
<circle cx="287" cy="774" r="0.7" fill="#8f8278" opacity="0.18"/>
<circle cx="351" cy="114" r="0.6" fill="#d1bfae" opacity="0.24"/>
<circle cx="488" cy="244" r="0.7" fill="#8f8278" opacity="0.17"/>
<circle cx="554" cy="955" r="0.6" fill="#d1bfae" opacity="0.22"/>
<circle cx="707" cy="389" r="0.7" fill="#8f8278" opacity="0.2"/>
<circle cx="844" cy="752" r="0.8" fill="#d1bfae" opacity="0.2"/>
<circle cx="907" cy="431" r="0.6" fill="#8f8278" opacity="0.2"/>
</g>
</svg>
